<svg xmlns="http://www.w3.org/2000/svg" xmlns:xlink="http://www.w3.org/1999/xlink" width="623.14" height="459.642" viewBox="0 0 623.14 459.642">
  <defs>
    <linearGradient id="linear-gradient" x1="0.5" y1="1" x2="0.5" gradientUnits="objectBoundingBox">
      <stop offset="0" stop-color="gray" stop-opacity="0.251"/>
      <stop offset="0.54" stop-color="gray" stop-opacity="0.122"/>
      <stop offset="1" stop-color="gray" stop-opacity="0.102"/>
    </linearGradient>
  </defs>
  <g id="Group_13" data-name="Group 13" transform="translate(0.009 -0.004)">
    <path id="Path_62" data-name="Path 62" d="M61.83,433.31c9.84,38.028,30.652,70.9,63.542,86.835,68.374,33.116,222.574,16.037,337.659-3.569,59.531-10.14,111.856-38.124,149.867-77.505Z" transform="translate(-55.127 -212.938)" fill="#da292e" opacity="0.1"/>
    <path id="Path_63" data-name="Path 63" d="M677.5,85.662H614.355a4.961,4.961,0,1,1,0-9.874h10.922a4.961,4.961,0,1,1,0-9.874h-7.795a4.962,4.962,0,1,1,0-9.874h32.958a94.446,94.446,0,0,0-25.712-6.413c-89.871-10.44-121.957-3.535-133.275,3.563a132.85,132.85,0,0,1-46.19,18.32c-55.447,10.35-159.14,22.8-253.124-3.965C145.426,54.217,110.707,76.711,89.9,114.314H688.467c-.782-10.927-3.121-21.022-7.415-29.853a5.761,5.761,0,0,1-3.552,1.2Z" transform="translate(-67.296 -44.29)" fill="#da292e" opacity="0.1"/>
    <path id="Path_64" data-name="Path 64" d="M51.34,293.19a228.025,228.025,0,0,0,2.447,66.346l554.4,18.348a235.207,235.207,0,0,0,38.52-53.147Zm219.271,47.329H259.7a4.962,4.962,0,1,1,0,9.874H196.55a4.961,4.961,0,1,1,0-9.874h10.922a4.961,4.961,0,1,1,0-9.874h-7.8a4.962,4.962,0,1,1,0-9.874h63.145a4.961,4.961,0,1,1,0,9.874h7.795a4.961,4.961,0,1,1,0,9.874Z" transform="translate(-49.99 -152.192)" fill="#da292e" opacity="0.1"/>
    <path id="Path_65" data-name="Path 65" d="M672.284,168.5,67.016,181.812a200.816,200.816,0,0,0-14.5,56.551H661.68a214.852,214.852,0,0,0,8.792-36.045A154.3,154.3,0,0,0,672.284,168.5ZM175.411,212.147H164.5a4.965,4.965,0,1,1,0,9.879H101.35a4.964,4.964,0,1,1,0-9.879h10.922a4.961,4.961,0,1,1,0-9.874h-7.8a4.962,4.962,0,1,1,0-9.874h63.145a4.961,4.961,0,1,1,0,9.874h7.795a4.961,4.961,0,1,1,0,9.874Z" transform="translate(-51.091 -98.136)" fill="#da292e" opacity="0.1"/>
    <ellipse id="Ellipse_2" data-name="Ellipse 2" cx="253.203" cy="23.293" rx="253.203" ry="23.293" transform="translate(55.567 395.878)" fill="#da292e" opacity="0.1"/>
    <path id="Path_66" data-name="Path 66" d="M956.573,385.485a.841.841,0,0,1,0-.119v-.176h0a4.837,4.837,0,0,0-.719-1.818,14.327,14.327,0,0,0-5.246-4.962c-3.739-2.051-8.877-2.929-10.372-6.843a20.9,20.9,0,0,1-.7-3.8,11.494,11.494,0,0,0-7.585-8.627c-1.779-.595-3.7-.759-5.427-1.5-3.863-1.643-5.9-5.693-7.63-9.437q-3.353-7.251-6.707-14.507a5.641,5.641,0,0,1-5.489-.617,11.387,11.387,0,0,1-3.552-4.39c-2.306-4.475-3.3-9.545-6-13.805s-8.118-7.625-12.9-5.772a22.012,22.012,0,0,1-2.889,1.2c-4.1.957-8.627-3.722-12.134-1.45a3.966,3.966,0,0,0-1.377,1.507.675.675,0,0,1,0-.113,7.244,7.244,0,0,0-.748,2.957h0v.714c0,.816.051,1.643.062,2.47a11,11,0,0,1-.159,2.073v-.057a6.978,6.978,0,0,1-.295,1.133c-.912,2.447-3.438,4.05-4.622,6.35v-.113a5.977,5.977,0,0,0-.346.776,5.778,5.778,0,0,0-.323,1.875c-.1,4.322,4.481,8.389,5.013,13.029.38,3.286,1.133,4.339,3.926,6.2l.612.408c-.244,0-.493.034-.77.04a1.884,1.884,0,0,0-.323.034,3.455,3.455,0,0,0-2.912.51c-2.141,1.7-7.206.391-9.455,0s-9.953.663-11.029,4.934-2.923,13.086-2.923,13.086,0,5.591-.685,6.633a.334.334,0,0,0,0,.227c0,1.569.057,11-1.461,13.431-.374.566-.346,1.818-.068,3.359-1.6,2.056-3.1,4.458-2.832,6.033.487,3.223,7.024,13.357,16.394,7.931,0,0,5.331-9.749-1.377-14.932l.289-1.133c2.028,2.492,3.529,4.283,3.529,4.283s.079.21.2.566h-.2a26.624,26.624,0,0,1,1.575,7.409,9.063,9.063,0,0,1-.5,2.725h.176c-.051.193-.108.385-.176.566a4.939,4.939,0,0,1-1.762,2.385c-4.685,3.32-10.049,27.027-10.049,27.027s-10.627,38.322-12.751,40.5c-1.756,1.79,9.279,6.832,17.561,6.231a13.516,13.516,0,0,0,3.4-.646c.051.566.108,1.133.164,1.648.176,1.7.357,3.274.47,3.767.295,1.235.878,13.845.878,13.845a88.967,88.967,0,0,0-.906,13.89c0,.391.051.765.085,1.133l-1.031.159c-1.563,3.512,4.877,32.816,5.755,35.28a23.464,23.464,0,0,1,.974,5.976,6.516,6.516,0,0,0-.1,3.223,7.838,7.838,0,0,1,.567,2.181,6,6,0,0,0,.2,3.127c.583,1.235-.1,3.4-.1,3.4s-.193,8.537-1.949,13.182a7.591,7.591,0,0,0,1.218,7.523,4.641,4.641,0,0,0,.4.459s9.687.079,11.392,0h.221c.685-.1,2.442-7.778.878-11.477s-.193-8.254-.193-8.254V561.6s1.756-1.62,0-5.1-1.467-4.532-1.467-4.532,1.954-5.6-.1-7.4.391-8.633.391-8.633l.691-22.772a8.944,8.944,0,0,0-1.1-.283c-.04-.374-.079-.759-.119-1.167-.4-4.124-.748-9.732.147-11.329s1.326-15.544,1.467-25.236l8.928.34c.187,4.532.385,8.667.51,9.194.295,1.235.884,13.845.884,13.845a88.659,88.659,0,0,0-.912,13.89c0,.391.051.765.085,1.133l-1.031.159c-1.563,3.512,4.877,32.816,5.755,35.28a23.6,23.6,0,0,1,.98,5.976,6.565,6.565,0,0,0-.1,3.223,7.836,7.836,0,0,1,.566,2.181,6,6,0,0,0,.2,3.127c.583,1.235-.1,3.4-.1,3.4s-.193,8.537-1.949,13.182a7.591,7.591,0,0,0,1.258,7.512,4.649,4.649,0,0,0,.4.459s9.687.079,11.392,0h.221c.685-.1,2.442-7.778.878-11.477s-.193-8.254-.193-8.254V561.6s1.756-1.62,0-5.1-1.467-4.532-1.467-4.532,1.954-5.6-.1-7.4.391-8.633.391-8.633l.7-22.772a8.712,8.712,0,0,0-1.133-.283c-.04-.374-.079-.759-.119-1.167-.4-4.124-.748-9.732.147-11.329.719-1.309,1.133-9.738,1.32-17.969,0-.566,0-1.133.045-1.7a87.854,87.854,0,0,0,12.225-1.371s-4.775-16.887-3.314-19.634c.629-1.184-.278-7.489-1.518-14.281a9.925,9.925,0,0,0,6.107,2.209c2.136,4.107,8.633,13.556,12.292,15.012,4.294,1.7,1.071-13.369-.974-15.55a18.349,18.349,0,0,1-2.424-3.892c.057-.068.119-.125.176-.187s.1-16.031-.878-15.742-2.147-2.374-2.147-2.374l-3.025-26.551-1.269-11.114h0c1.059.782,2.317,1.28,3.4,2.056,2.946,2.158,3.909,5.948,5.2,9.3,1.065,2.759,2.56,5.495,5.013,7.228s6.05,2.192,8.5.436c2.266-1.648,2.934-4.622,3.433-7.336,4.113,1.444,9.1-2.419,8.571-6.639-.13-1.042-.516-2.181.028-3.093,1.088-1.8,4.532-.753,5.665-2.532a1.892,1.892,0,0,0,.283-1.025A.7.7,0,0,0,956.573,385.485Zm-55.01,14.6c-.062,1.014,1.331,9.16,2.464,15.606-.929-4.016-2.793-8.3-6.463-11.245a5.085,5.085,0,0,0-.045-.566h.045s-.153-1.62-.176-3.926a43.248,43.248,0,0,1,.453-6.107V393.8h-.074a3.229,3.229,0,0,1,.074-.516,18.413,18.413,0,0,1,1.377-4.951,13.73,13.73,0,0,1,1.048-1.779c.606,5.478,1.354,12.508,1.3,13.533Zm3.048,18.875c.5,2.781.855,4.736.855,4.736l3.008,20.654v.1c-1.62-8.718-3.688-17.906-3.688-17.906a35.682,35.682,0,0,0-.176-7.579Z" transform="translate(-389.739 -158.712)" fill="url(#linear-gradient)"/>
    <path id="Path_67" data-name="Path 67" d="M890.109,343.555c-.566-5.234-6.231-9.749-4.532-14.728.923-2.713,3.812-4.373,4.787-7.07.646-1.779.357-3.733.363-5.625s.448-4,2.022-5.053c3.4-2.266,7.772,2.4,11.737,1.445a20.769,20.769,0,0,0,2.793-1.19c4.628-1.841,9.862,1.513,12.462,5.75s3.574,9.29,5.806,13.743a11.272,11.272,0,0,0,3.433,4.368,5.336,5.336,0,0,0,5.313.617l6.486,14.445c1.7,3.722,3.648,7.755,7.364,9.392,1.666.731,3.524.9,5.246,1.49a11.33,11.33,0,0,1,7.364,8.582,21.141,21.141,0,0,0,.674,3.79c1.444,3.9,6.412,4.77,10.032,6.8a14.031,14.031,0,0,1,5.1,4.934c.566.98,1.054,2.266.448,3.229-1.093,1.767-4.419.725-5.472,2.521-.532.906-.159,2.039,0,3.082.516,4.2-4.317,8.044-8.293,6.605-.482,2.7-1.133,5.665-3.32,7.3-2.351,1.756-5.835,1.292-8.208-.431s-3.812-4.447-4.843-7.194c-1.252-3.342-2.187-7.115-5.036-9.262-1.031-.77-2.266-1.269-3.274-2.045-2.266-1.733-3.4-4.594-4.209-7.364a77.052,77.052,0,0,0-3.4-10.27c-1.518-3.263-3.92-6.3-7.211-7.789-3.087-1.388-6.645-1.3-9.834-2.425-5.489-1.937-9.551-6.554-15.012-8.729a24.3,24.3,0,0,1-4.928-2.787C891.22,347.877,890.472,346.829,890.109,343.555Z" transform="translate(-412.104 -159.675)" fill="#3f3d56"/>
    <g id="Group_12" data-name="Group 12" transform="translate(473.196 152.78)" opacity="0.1">
      <path id="Path_68" data-name="Path 68" d="M894.72,322.181a5.739,5.739,0,0,0,.306-.685c.64-1.779.357-3.733.363-5.625a10.1,10.1,0,0,1,.176-1.881,7.933,7.933,0,0,0-.742,3.58A26.057,26.057,0,0,1,894.72,322.181Z" transform="translate(-889.401 -313.99)"/>
      <path id="Path_69" data-name="Path 69" d="M960.485,419.593c-2.351,1.75-5.835,1.292-8.208-.436a14.932,14.932,0,0,1-4.821-7.2c-1.252-3.342-2.181-7.115-5.036-9.262-1.025-.77-2.266-1.275-3.269-2.045-2.266-1.733-3.4-4.594-4.215-7.336a76.231,76.231,0,0,0-3.4-10.27c-1.524-3.263-3.914-6.3-7.211-7.789-3.082-1.388-6.639-1.3-9.828-2.424-5.495-1.937-9.556-6.554-15.012-8.729a24.614,24.614,0,0,1-4.934-2.787c-2.685-1.852-3.4-2.9-3.8-6.169-.566-4.906-5.551-9.183-4.775-13.8a7.178,7.178,0,0,0-.334.77c-1.7,4.985,3.965,9.5,4.532,14.728.368,3.269,1.133,4.317,3.8,6.169a24.613,24.613,0,0,0,4.934,2.787c5.455,2.175,9.517,6.8,15.012,8.729,3.189,1.133,6.747,1.037,9.828,2.425,3.3,1.49,5.665,4.532,7.211,7.789a69.474,69.474,0,0,1,3.4,10.27c.833,2.742,1.926,5.6,4.215,7.336,1.025.77,2.266,1.275,3.269,2.045,2.832,2.147,3.784,5.92,5.036,9.262,1.031,2.747,2.475,5.466,4.849,7.189s5.857,2.187,8.208.436a8.366,8.366,0,0,0,2.77-4.713,6.955,6.955,0,0,1-2.22,3.031Z" transform="translate(-885.331 -325.847)"/>
      <path id="Path_70" data-name="Path 70" d="M1038.335,447.843a2.385,2.385,0,0,0-.272,1.326c1.28-1.263,4.169-.521,5.178-2.147a2.068,2.068,0,0,0,.261-1.331C1042.187,446.936,1039.3,446.194,1038.335,447.843Z" transform="translate(-951.54 -371.085)"/>
      <path id="Path_71" data-name="Path 71" d="M1023.591,463.95c-.108.566-.215,1.173-.351,1.762,3.467,1.082,7.472-1.7,8.038-5.212C1029.9,463.2,1026.5,465.009,1023.591,463.95Z" transform="translate(-945.118 -377.506)"/>
    </g>
    <path id="Path_72" data-name="Path 72" d="M902.547,371.212s1.886,3.807-3.682,3.886,3.586,24.721,3.586,24.721l9.256,11.783,11.516-6.231.663-17.187.85-10.384s-10.763-3.5-8.78-8.118S902.547,371.212,902.547,371.212Z" transform="translate(-417.223 -184.608)" fill="#fbbebe"/>
    <path id="Path_73" data-name="Path 73" d="M965.75,544.44s6.8,6.69,14.728-2.187l-6.09-6.464h-7.7Z" transform="translate(-446.998 -257.365)" fill="#575a89"/>
    <path id="Path_74" data-name="Path 74" d="M966.335,535.79l-.935,8.65s6.8,6.69,14.728-2.187" transform="translate(-446.846 -257.365)" opacity="0.1"/>
    <path id="Path_75" data-name="Path 75" d="M981.461,537.87s2.736,7.177,4.719,9.347,5.1,17.181.946,15.482-12.083-14.349-12.559-16.518a73.433,73.433,0,0,1-.657-8.31Z" transform="translate(-450.536 -258.267)" fill="#fbbebe"/>
    <path id="Path_76" data-name="Path 76" d="M832.42,547.525l36.628,1.416L864.8,533.454l-18.45-.374Z" transform="translate(-360.878 -231.101)" fill="#575a89"/>
    <path id="Path_77" data-name="Path 77" d="M841.41,547.525l36.634,1.416L873.8,533.454l-18.456-.374Z" transform="translate(-364.776 -231.101)" opacity="0.1"/>
    <path id="Path_78" data-name="Path 78" d="M890.421,621.572c-.867,1.614-.533,7.2-.142,11.33.249,2.628.521,4.651.521,4.651s-13.692,4.249-15.765.566a11.2,11.2,0,0,1-.878-4.492,90.6,90.6,0,0,1,.878-13.828s-.567-12.553-.85-13.782c-.113-.493-.289-2.056-.459-3.75-.249-2.515-.487-5.314-.487-5.314l18.694-9.913s0,1.858-.034,4.719C891.8,600.743,891.5,619.59,890.421,621.572Z" transform="translate(-406.893 -279.583)" fill="#fbbebe"/>
    <path id="Path_79" data-name="Path 79" d="M891.5,672.4s-13.692,4.249-15.765.566a11.2,11.2,0,0,1-.878-4.492c2.832-.431,11.454-1.62,16.122-.725C891.231,670.38,891.5,672.4,891.5,672.4Z" transform="translate(-407.595 -314.433)" opacity="0.1"/>
    <path id="Path_80" data-name="Path 80" d="M891.091,744.644h-.215c-1.648.062-11.018,0-11.018,0a5.1,5.1,0,0,1-.385-.453,7.727,7.727,0,0,1-1.218-7.478c1.7-4.628,1.886-13.125,1.886-13.125s.663-2.17.1-3.4a6.134,6.134,0,0,1-.193-3.116,8.076,8.076,0,0,0-.567-2.17,6.473,6.473,0,0,1,.1-3.212,24.044,24.044,0,0,0-.946-5.948c-.85-2.453-7.081-31.626-5.569-35.122,0,0,13.216-2.266,18.224-.566l-.663,22.659s-2.362,6.8-.38,8.593.1,7.364.1,7.364-.283,1.037,1.416,4.532,0,5.1,0,5.1V725s-1.32,4.532.187,8.214S891.753,744.525,891.091,744.644Z" transform="translate(-406.712 -315.299)" fill="#3f3d56"/>
    <path id="Path_81" data-name="Path 81" d="M937.711,619.361c-.867,1.614-.532,7.2-.142,11.329.249,2.628.521,4.651.521,4.651s-13.692,4.249-15.765.567a11.2,11.2,0,0,1-.878-4.492,90.594,90.594,0,0,1,.878-13.828s-.566-12.553-.85-13.782c-.153-.663-.419-6.985-.629-12.655-.176-4.838-.317-9.211-.317-9.211l18.694,2.889s0,8.22-.232,16.666C938.788,609.686,938.408,618.081,937.711,619.361Z" transform="translate(-427.394 -277.373)" fill="#fbbebe"/>
    <path id="Path_82" data-name="Path 82" d="M938.793,672.4s-13.692,4.249-15.765.566a11.2,11.2,0,0,1-.878-4.492c2.832-.431,11.454-1.62,16.122-.725C938.521,670.38,938.793,672.4,938.793,672.4Z" transform="translate(-428.096 -314.433)" opacity="0.1"/>
    <path id="Path_83" data-name="Path 83" d="M938.368,744.627h-.215c-1.648.062-11.018,0-11.018,0a5.1,5.1,0,0,1-.385-.453,7.727,7.727,0,0,1-1.218-7.478c1.7-4.651,1.869-13.148,1.869-13.148s.663-2.17.1-3.4a6.134,6.134,0,0,1-.193-3.116,8.071,8.071,0,0,0-.566-2.17,6.473,6.473,0,0,1,.1-3.212,24.053,24.053,0,0,0-.946-5.948c-.85-2.453-7.081-31.626-5.568-35.122,0,0,13.216-2.266,18.224-.566l-.663,22.659s-2.362,6.8-.38,8.593.1,7.364.1,7.364-.283,1.037,1.416,4.532,0,5.1,0,5.1v6.7s-1.32,4.532.187,8.214S939.03,744.508,938.368,744.627Z" transform="translate(-427.201 -315.282)" fill="#3f3d56"/>
    <circle id="Ellipse_3" data-name="Ellipse 3" cx="13.312" cy="13.312" r="13.312" transform="translate(479.376 164.433)" opacity="0.1"/>
    <circle id="Ellipse_4" data-name="Ellipse 4" cx="13.312" cy="13.312" r="13.312" transform="translate(479.376 163.866)" fill="#fbbebe"/>
    <path id="Path_84" data-name="Path 84" d="M873.24,596.953l18.694-9.913s0,1.858-.034,4.719c-2.73,1.631-6.849,4.084-10.808,6.4-2.153,1.263-4.254,2.487-6.056,3.512a8.045,8.045,0,0,1-1.309.566C873.478,599.752,873.24,596.953,873.24,596.953Z" transform="translate(-406.893 -279.583)" opacity="0.1"/>
    <path id="Path_85" data-name="Path 85" d="M939.241,584.789s0,8.22-.232,16.666h-.068a31.428,31.428,0,0,1-4.186-.13c-2.442-.261-4.4-.906-5.1-2.187-1.422-2.493-5.4-5.665-8.769-8.027-.176-4.838-.317-9.211-.317-9.211Z" transform="translate(-427.411 -277.355)" opacity="0.1"/>
    <path id="Path_86" data-name="Path 86" d="M899.855,424.786a53.909,53.909,0,0,0-.272,11.12c8.588,7.081,6.985,22,6.985,22s6.611,30.216,5.195,32.952,3.206,19.543,3.206,19.543a82.424,82.424,0,0,1-11.936,1.371,31.42,31.42,0,0,1-4.186-.13c-2.441-.261-4.4-.906-5.1-2.187-2.64-4.622-14.066-11.516-14.066-11.516s-7.24,4.339-13.981,8.287c-2.153,1.263-4.254,2.487-6.056,3.512a11.24,11.24,0,0,1-4.73,1.3c-8.016.595-18.694-4.424-16.994-6.2,2.079-2.175,12.372-40.316,12.372-40.316s5.189-23.605,9.721-26.908a4.9,4.9,0,0,0,1.7-2.374c1.552-4.311-1.042-11.222-1.042-11.222S846.04,405.979,846.7,404.937s.663-6.605.663-6.605,1.8-8.78,2.832-13.029,8.5-5.291,10.667-4.911,7.075,1.7,9.149,0,5.574.663,5.574.663l8.6,2.368,7.732-4.532s7.749.4,8.412,1.433,10.859,3.025,10.859,3.025c5.189,3.49,5,20.11,5,20.11s-12.462,10.854-15.012,16.428a18.727,18.727,0,0,0-1.32,4.9Z" transform="translate(-391.503 -189.345)" fill="#575a89"/>
    <path id="Path_87" data-name="Path 87" d="M962.132,418.2l2.832,2.266,2.929,26.341,2.923,26.437s1.133,2.645,2.079,2.362.85,15.669.85,15.669-10.842-6.667-14.728,2.187l-3.025-21.35s-3.875-21.809-3.778-23.509-1.983-20.11-1.983-20.11Z" transform="translate(-440.27 -206.387)" fill="#575a89"/>
    <path id="Path_88" data-name="Path 88" d="M854.36,420.37l-2.079,2.549s.193,10.95-1.416,13.6,4.441,18.127,6.707,17.181,7.364-25.112,7.364-25.4S854.36,420.37,854.36,420.37Z" transform="translate(-397.076 -207.328)" fill="#575a89"/>
    <path id="Path_89" data-name="Path 89" d="M852.192,447.87s-6.611,6.7-6.141,9.913,6.8,13.3,15.861,7.88C861.913,465.663,870.319,449.853,852.192,447.87Z" transform="translate(-395.096 -219.25)" fill="#575a89"/>
    <path id="Path_90" data-name="Path 90" d="M895.963,801.1c-1.648.062-11.018,0-11.018,0a5.075,5.075,0,0,1-.385-.453C886.956,799.836,892.134,798.612,895.963,801.1Z" transform="translate(-411.8 -371.743)" opacity="0.1"/>
    <path id="Path_91" data-name="Path 91" d="M943.273,801.1c-1.648.062-11.018,0-11.018,0a5.075,5.075,0,0,1-.385-.453C934.255,799.836,939.432,798.612,943.273,801.1Z" transform="translate(-432.31 -371.743)" opacity="0.1"/>
    <path id="Path_92" data-name="Path 92" d="M879.491,509.11c-1.444,13.856-.969,41.353-.668,53.566-2.153,1.263-4.254,2.487-6.056,3.512a11.238,11.238,0,0,1-4.73,1.3C867.436,563.792,875.752,525.855,879.491,509.11Z" transform="translate(-404.623 -245.799)" opacity="0.1"/>
    <path id="Path_93" data-name="Path 93" d="M890.047,495.23c-.04.2-.725,3.212-1.767,7.863C888.688,499.122,889.254,496.272,890.047,495.23Z" transform="translate(-413.413 -239.782)" opacity="0.1"/>
    <path id="Path_94" data-name="Path 94" d="M919.952,492.59s8.027,50.416-15.742,56.648C904.2,549.215,920.655,546.717,919.952,492.59Z" transform="translate(-420.319 -238.637)" opacity="0.1"/>
    <path id="Path_95" data-name="Path 95" d="M944.889,560.6a31.42,31.42,0,0,1-4.186-.13L934.29,491.54C938.38,494.214,943.274,543.135,944.889,560.6Z" transform="translate(-433.359 -238.182)" opacity="0.1"/>
    <path id="Path_96" data-name="Path 96" d="M899.955,336.839a3.507,3.507,0,0,1,1.263.13,5.511,5.511,0,0,1,1.6,1.2,5.693,5.693,0,0,0,5.4,1.048,7.125,7.125,0,0,1,2.034-.566,3.239,3.239,0,0,1,2.577,1.7c.561.906.85,1.983,1.331,2.951a3.709,3.709,0,0,0,2.311,2.124,4.046,4.046,0,0,1,1.473.34,2.084,2.084,0,0,1,.634.878c.884,1.909,1.586,4.164,3.473,5.1a5.194,5.194,0,0,0,2.215.482,4.628,4.628,0,0,0,2.266-.408,4.34,4.34,0,0,0,1.665-1.66,10.352,10.352,0,0,0,1.037-6.622,18.217,18.217,0,0,0-2.963-7.965,16.626,16.626,0,0,0-15.21-7.019,21.2,21.2,0,0,0-3.031.566c-3.6.963-7.138,2.764-9.324,5.784a19.628,19.628,0,0,1-1.739,2.141C897.961,336.947,898.958,336.862,899.955,336.839Z" transform="translate(-417.18 -167.49)" opacity="0.1"/>
    <path id="Path_97" data-name="Path 97" d="M899.955,335.839a3.507,3.507,0,0,1,1.263.13,5.512,5.512,0,0,1,1.6,1.2,5.693,5.693,0,0,0,5.4,1.048,7.128,7.128,0,0,1,2.034-.566,3.239,3.239,0,0,1,2.577,1.7c.561.906.85,1.983,1.331,2.951a3.709,3.709,0,0,0,2.311,2.124,4.043,4.043,0,0,1,1.473.34,2.084,2.084,0,0,1,.634.878c.884,1.909,1.586,4.164,3.473,5.1a5.194,5.194,0,0,0,2.215.482,4.628,4.628,0,0,0,2.266-.408,4.34,4.34,0,0,0,1.665-1.66,10.352,10.352,0,0,0,1.037-6.622,18.217,18.217,0,0,0-2.963-7.965,16.626,16.626,0,0,0-15.21-7.019,21.191,21.191,0,0,0-3.031.566c-3.6.963-7.138,2.764-9.324,5.784a19.628,19.628,0,0,1-1.739,2.141C897.961,335.947,898.958,335.862,899.955,335.839Z" transform="translate(-417.18 -167.056)" fill="#3f3d56"/>
    <path id="Path_98" data-name="Path 98" d="M874.968,398.2s.663,5.291-1.6,6.611S874.968,398.2,874.968,398.2Z" transform="translate(-406.638 -197.717)" opacity="0.1"/>
    <path id="Path_99" data-name="Path 99" d="M961.57,465.893s5.381-7.931,6.141-5.665S961.57,465.893,961.57,465.893Z" transform="translate(-445.186 -224.431)" opacity="0.1"/>
    <path id="Path_100" data-name="Path 100" d="M962.24,471.713s5.308-6.514,5.818-3.965S962.24,471.713,962.24,471.713Z" transform="translate(-445.476 -227.611)" opacity="0.1"/>
    <path id="Path_101" data-name="Path 101" d="M910.235,459.8a8.616,8.616,0,0,1-5.336-1.756h-.464a8.384,8.384,0,0,1-5.829,2.192,8.271,8.271,0,0,1-6.044-2.425h-.617a8.9,8.9,0,0,1-11.488-.21l-2.215-.04s2.594,6.911,1.042,11.222l37.858.674a53.909,53.909,0,0,1,.272-11.12v-.051l-2.079-.04a8.712,8.712,0,0,1-5.1,1.552Z" transform="translate(-409.06 -223.451)" opacity="0.1"/>
    <path id="Path_102" data-name="Path 102" d="M910.235,461.8a8.616,8.616,0,0,1-5.336-1.756h-.464a8.384,8.384,0,0,1-5.829,2.192,8.27,8.27,0,0,1-6.044-2.424h-.617a8.9,8.9,0,0,1-11.488-.21l-2.215-.04s2.594,6.911,1.042,11.222l37.858.674a53.91,53.91,0,0,1,.272-11.12v-.051l-2.079-.04a8.712,8.712,0,0,1-5.1,1.552Z" transform="translate(-409.06 -224.318)" opacity="0.1"/>
    <path id="Path_103" data-name="Path 103" d="M910.235,460.8a8.616,8.616,0,0,1-5.336-1.756h-.464a8.384,8.384,0,0,1-5.829,2.192,8.27,8.27,0,0,1-6.044-2.424h-.617a8.9,8.9,0,0,1-11.488-.21l-2.215-.04s2.594,6.911,1.042,11.222l37.858.674a53.91,53.91,0,0,1,.272-11.12v-.051l-2.079-.04a8.712,8.712,0,0,1-5.1,1.552Z" transform="translate(-409.06 -223.884)" fill="#3f3d56"/>
    <path id="Path_104" data-name="Path 104" d="M931.75,395.83s7.97.51,8.021,1.643S931.75,395.83,931.75,395.83Z" transform="translate(-432.258 -196.689)" opacity="0.1"/>
    <path id="Path_105" data-name="Path 105" d="M891.431,387.3s-7.97.51-8.021,1.643S891.431,387.3,891.431,387.3Z" transform="translate(-411.302 -192.991)" opacity="0.1"/>
    <path id="Path_106" data-name="Path 106" d="M943.948,428.073c-.079-.057-.159-.1-.238-.153,2.039,1.835,1.7,5.846-.8,9.154s-6.3,4.685-8.616,3.2c.074.062.136.13.215.193,2.266,1.733,6.231.374,8.848-3.048S946.226,429.812,943.948,428.073Z" transform="translate(-433.359 -210.601)" opacity="0.1"/>
    <path id="Path_107" data-name="Path 107" d="M872.631,436.307c-2.017-3.637-1.756-7.653.527-9.177-.085.04-.176.074-.261.119-2.5,1.393-2.832,5.568-.759,9.33s5.812,5.665,8.316,4.294a2.187,2.187,0,0,0,.238-.159C878.194,441.847,874.648,439.944,872.631,436.307Z" transform="translate(-405.825 -210.259)" opacity="0.1"/>
    <path id="Path_108" data-name="Path 108" d="M876.824,388.145h0l-.731,1.133-1.864-.991.98-1.507a4.107,4.107,0,0,1,1.614,1.365Z" transform="translate(-407.322 -192.766)" opacity="0.1"/>
    <path id="Path_109" data-name="Path 109" d="M856.5,443.688s1.66-7.806-.567-10.287-1.512-15.487,1.886-15.2,8.5,10.57,7.647,12.746-4.062,13.312-4.062,13.312Z" transform="translate(-398.835 -206.384)" fill="#fbbebe"/>
    <path id="Path_110" data-name="Path 110" d="M928.156,353.571a4.34,4.34,0,0,1-1.665,1.66,4.628,4.628,0,0,1-2.266.408,5.2,5.2,0,0,1-2.215-.482c-1.886-.94-2.589-3.195-3.472-5.1a2.084,2.084,0,0,0-.578-.9,4.045,4.045,0,0,0-1.456-.357,3.738,3.738,0,0,1-2.311-2.124c-.487-.963-.776-2.028-1.331-2.951a3.12,3.12,0,0,0-2.577-1.7,6.962,6.962,0,0,0-2.034.595,5.71,5.71,0,0,1-5.4-1.054,5.512,5.512,0,0,0-1.6-1.2,3.508,3.508,0,0,0-1.263-.13c-.651,0-1.3.062-1.949.113A14.233,14.233,0,0,1,897,341.567c.991-.085,1.988-.17,2.985-.193a3.507,3.507,0,0,1,1.263.13,5.512,5.512,0,0,1,1.6,1.2,5.71,5.71,0,0,0,5.4,1.054,6.964,6.964,0,0,1,2.034-.595,3.24,3.24,0,0,1,2.577,1.7c.561.906.85,1.983,1.331,2.951a3.709,3.709,0,0,0,2.311,2.124,4.044,4.044,0,0,1,1.456.357,2.084,2.084,0,0,1,.634.878c.884,1.909,1.586,4.164,3.473,5.1a5.194,5.194,0,0,0,2.215.482,4.628,4.628,0,0,0,2.266-.408,4.34,4.34,0,0,0,1.665-1.66,9.4,9.4,0,0,0,1.133-5.246,8.656,8.656,0,0,1-1.19,4.13Z" transform="translate(-417.193 -172.586)" opacity="0.1"/>
    <ellipse id="Ellipse_5" data-name="Ellipse 5" cx="5.098" cy="3.456" rx="5.098" ry="3.456" transform="translate(455.074 236.585)" fill="#575a89"/>
    <circle id="Ellipse_6" data-name="Ellipse 6" cx="174.758" cy="174.758" r="174.758" transform="translate(119.234 82.872)" fill="#da292e"/>
    <path id="Path_111" data-name="Path 111" d="M590.5,596.642c0,27.587-43.369,2.357-89.866,2.357s-93.525,24.188-93.525-3.4c0-15.731,14.989-37.608,36.492-53.5h0c16.2-11.975,36.1-20.552,56.081-20.552,20.552,0,40.684,9.285,56.744,22.03C576.7,559.651,590.5,581.245,590.5,596.642Z" transform="translate(-204.814 -251.192)" fill="#444053"/>
    <path id="Path_112" data-name="Path 112" d="M584.349,543.56c-24.715-3.722-69.416-8.259-112.819-1.478,16.2-11.975,36.1-20.552,56.081-20.552C548.157,521.53,568.29,530.815,584.349,543.56Z" transform="translate(-232.742 -251.183)" fill="#f6f8fb"/>
    <path id="Path_113" data-name="Path 113" d="M367.15,281.31s-52.643,33.654-52.212,86.3S367.15,281.31,367.15,281.31Z" transform="translate(-164.854 -147.042)" opacity="0.05"/>
    <path id="Path_114" data-name="Path 114" d="M844.809,113.473s-47.7-2.872-42.072,30.55c0,0-1.133,5.9,4.237,8.588,0,0,.085-2.475,4.889-1.637a22.092,22.092,0,0,0,5.183.249,10.763,10.763,0,0,0,6.333-2.617h0s13.409-5.534,18.626-27.451c0,0,3.858-4.781,3.7-6l-8.05,3.433s2.747,5.806.566,10.633c0,0-.261-10.417-1.807-10.2-.312.051-4.181,2.011-4.181,2.011s4.73,10.117,1.133,17.464c0,0,1.354-12.462-2.64-16.734l-5.665,3.308s5.529,10.446,1.779,18.971c0,0,.963-13.074-2.968-18.167l-5.138,4s5.195,10.3,2.028,17.368c0,0-.413-15.221-3.138-16.371,0,0-4.492,3.965-5.178,5.591,0,0,3.557,7.472,1.354,11.414,0,0-1.354-10.14-2.464-10.2,0,0-4.475,6.718-4.945,11.33,0,0,.2-6.854,3.858-11.97,0,0-4.328.742-6.849,3.552,0,0,.7-4.753,7.931-5.166,0,0,3.7-5.1,4.69-5.4,0,0-7.223-.606-11.6,1.337,0,0,3.852-4.481,12.921-2.447l5.1-4.135s-9.505-1.3-13.539.136c0,0,4.639-3.965,14.9-1.076l5.523-3.3s-8.106-1.745-12.938-1.133c0,0,5.1-2.747,14.553.232l3.965-1.773s-5.942-1.167-7.681-1.348-1.83-.668-1.83-.668a20.591,20.591,0,0,1,11.177,1.3S844.951,114,844.809,113.473Z" transform="translate(-376.128 -74.254)" fill="#da292e"/>
    <path id="Path_115" data-name="Path 115" d="M776.294,87.268s-21.526-1.3-19.011,13.8a3.684,3.684,0,0,0,1.915,3.88s.034-1.133,2.209-.736a10.23,10.23,0,0,0,2.34.113,4.923,4.923,0,0,0,2.866-1.184h0s6.056-2.5,8.412-12.406c0,0,1.745-2.158,1.7-2.713l-3.637,1.552s1.246,2.623.266,4.8c0,0-.119-4.707-.816-4.594-.142,0-1.892.906-1.892.906s2.141,4.571.527,7.891c0,0,.612-5.631-1.19-7.562l-2.56,1.5s2.5,4.724.8,8.576c0,0,.43-5.908-1.343-8.208l-2.323,1.807s2.345,4.651.918,7.846c0,0-.187-6.877-1.422-7.4a14.208,14.208,0,0,0-2.34,2.526s1.609,3.4.612,5.161c0,0-.612-4.583-1.133-4.6,0,0-2.022,3.031-2.232,5.1a11.035,11.035,0,0,1,1.739-5.41,6.067,6.067,0,0,0-3.093,1.6s.312-2.147,3.591-2.334a14.131,14.131,0,0,1,2.119-2.442,13.283,13.283,0,0,0-5.24.606s1.739-2.028,5.84-1.133l2.266-1.864s-4.294-.566-6.118.057c0,0,2.1-1.79,6.735-.482l2.493-1.5a22.667,22.667,0,0,0-5.846-.5s2.306-1.241,6.577.108l1.784-.8s-2.685-.527-3.467-.606-.833-.3-.833-.3a9.285,9.285,0,0,1,5.042.566S776.357,87.506,776.294,87.268Z" transform="translate(-356.534 -62.908)" fill="#da292e"/>
    <ellipse id="Ellipse_7" data-name="Ellipse 7" cx="15.255" cy="2.577" rx="15.255" ry="2.577" transform="translate(592.62 408.38)" fill="#da292e" opacity="0.1"/>
    <ellipse id="Ellipse_8" data-name="Ellipse 8" cx="15.255" cy="2.577" rx="15.255" ry="2.577" transform="translate(11.235 451.256)" fill="#da292e" opacity="0.1"/>
    <ellipse id="Ellipse_9" data-name="Ellipse 9" cx="15.255" cy="2.577" rx="15.255" ry="2.577" transform="translate(99.792 454.491)" fill="#da292e" opacity="0.1"/>
    <ellipse id="Ellipse_10" data-name="Ellipse 10" cx="22.778" cy="3.852" rx="22.778" ry="3.852" transform="translate(551.71 434.727)" fill="#da292e"/>
    <path id="Path_116" data-name="Path 116" d="M1064.64,799.365a6.645,6.645,0,0,0,2.175-3.28,2.923,2.923,0,0,0-1.518-3.337c-1.394-.533-2.883.436-4.011,1.411s-2.425,2.085-3.9,1.881a5.931,5.931,0,0,0,1.835-5.557,2.334,2.334,0,0,0-.51-1.133c-.776-.827-2.175-.476-3.1.176-2.946,2.073-3.767,6.073-3.784,9.675a18.192,18.192,0,0,1-.051-3.965,4.1,4.1,0,0,0-1.5-3.529,4.532,4.532,0,0,0-2.266-.532,4.714,4.714,0,0,0-3.7,1.048c-1.133,1.207-.833,3.223.147,4.532a14.694,14.694,0,0,0,3.829,3.07,8.5,8.5,0,0,1,2.742,2.612,2.754,2.754,0,0,1,.2.47h8.3a23.1,23.1,0,0,0,5.115-3.54Z" transform="translate(-480.737 -367.08)" fill="#da292e"/>
    <path id="Path_117" data-name="Path 117" d="M102.769,723.55s3.11,4.067-1.439,10.2-8.3,11.329-6.8,15.159c0,0,6.86-11.409,12.462-11.573S108.91,730.41,102.769,723.55Z" transform="translate(-69.158 -338.764)" fill="#da292e"/>
    <path id="Path_118" data-name="Path 118" d="M102.91,723.55a5.1,5.1,0,0,1,.634,1.275c5.45,6.4,8.35,12.377,3.116,12.525-4.883.142-10.763,8.865-12.14,11.069a5.271,5.271,0,0,0,.17.5s6.86-11.409,12.462-11.573S109.05,730.41,102.91,723.55Z" transform="translate(-69.299 -338.764)" opacity="0.1"/>
    <path id="Path_119" data-name="Path 119" d="M118.989,731.99c0,1.433-.164,2.594-.363,2.594s-.357-1.133-.357-2.594.2-.759.4-.759S118.989,730.557,118.989,731.99Z" transform="translate(-79.595 -342.021)" fill="#ffd037"/>
    <path id="Path_120" data-name="Path 120" d="M121.122,734.97c-1.258.685-2.351,1.1-2.447.923s.85-.867,2.107-1.552.759-.187.855,0S122.4,734.285,121.122,734.97Z" transform="translate(-79.767 -343.29)" fill="#ffd037"/>
    <path id="Path_121" data-name="Path 121" d="M74.96,723.55s-3.11,4.067,1.433,10.2,8.3,11.329,6.8,15.159c0,0-6.866-11.409-12.462-11.573S68.814,730.41,74.96,723.55Z" transform="translate(-57.788 -338.764)" fill="#da292e"/>
    <path id="Path_122" data-name="Path 122" d="M74.954,723.55a4.887,4.887,0,0,0-.634,1.275c-5.45,6.4-8.356,12.377-3.116,12.525,4.877.142,10.763,8.865,12.134,11.069a5.24,5.24,0,0,1-.164.5s-6.866-11.409-12.462-11.573S68.807,730.41,74.954,723.55Z" transform="translate(-57.782 -338.764)" opacity="0.1"/>
    <path id="Path_123" data-name="Path 123" d="M70.1,731.99c0,1.433.159,2.594.357,2.594s.357-1.133.357-2.594-.2-.759-.4-.759S70.1,730.557,70.1,731.99Z" transform="translate(-58.712 -342.021)" fill="#ffd037"/>
    <path id="Path_124" data-name="Path 124" d="M66.007,734.97c1.258.685,2.357,1.1,2.453.923s-.85-.867-2.107-1.552-.765-.187-.855,0S64.749,734.285,66.007,734.97Z" transform="translate(-56.607 -343.29)" fill="#ffd037"/>
    <path id="Path_125" data-name="Path 125" d="M71.85,763.8s8.7-.266,11.33-2.136,13.386-4.1,14.037-1.133,13.074,14.9,3.252,14.978-22.823-1.535-25.44-3.127S71.85,763.8,71.85,763.8Z" transform="translate(-59.471 -354.169)" fill="#a8a8a8"/>
    <path id="Path_126" data-name="Path 126" d="M100.633,778.086c-9.823.079-22.823-1.535-25.44-3.127-1.994-1.212-2.787-5.568-3.053-7.579H71.85s.566,7.019,3.167,8.61,15.618,3.206,25.44,3.127c2.832,0,3.812-1.037,3.761-2.526C103.822,777.5,102.746,778.069,100.633,778.086Z" transform="translate(-59.471 -357.765)" opacity="0.2"/>
    <path id="Path_127" data-name="Path 127" d="M428.025,450.278c3.325-.187,18.977-1.365,28.919-7.036A11.267,11.267,0,0,1,462.2,441.7c3.161-.091,6.8,1.229,4.47,8.616-3.773,12.083-25.678,25.678-39.274,24.925-13.074-.725-28.584-5.993-38.826-24.517a11.33,11.33,0,0,1-1.4-5.829c.119-3.739,1.478-8.424,8.5-3.2,9.483,7.053,27.474,8.39,31.083,8.588a11.96,11.96,0,0,0,1.28,0Z" transform="translate(-196.165 -215.562)" fill="#444053"/>
    <path id="Path_128" data-name="Path 128" d="M650.025,450.278c3.325-.187,18.977-1.365,28.919-7.036A11.267,11.267,0,0,1,684.2,441.7c3.161-.091,6.8,1.229,4.47,8.616-3.773,12.083-25.678,25.678-39.274,24.925-13.074-.725-28.584-5.993-38.826-24.517a11.329,11.329,0,0,1-1.4-5.829c.119-3.739,1.479-8.424,8.5-3.2,9.483,7.053,27.474,8.39,31.083,8.588a11.959,11.959,0,0,0,1.28,0Z" transform="translate(-292.407 -215.562)" fill="#444053"/>
  </g>
</svg>
